<svg width="39" height="40" viewBox="0 0 39 40" fill="none" xmlns="http://www.w3.org/2000/svg">
<path d="M20.8197 0.0410156C30.7149 0.0410156 38.8109 8.34463 38.8109 18.4935V21.3765C38.8109 31.5254 30.7148 39.829 20.8197 39.829H18.0087C8.1136 39.829 0.0175781 31.5254 0.0175781 21.3765V18.4935C0.0175781 8.34463 8.1136 0.0410156 18.0087 0.0410156H20.8197ZM19.7679 10.0413L19.5176 10.041C17.4332 10.041 15.3489 10.1117 15.3489 10.1117C12.3045 10.1117 9.83647 12.6429 9.83647 15.7654C9.83647 15.7654 9.7732 17.6011 9.76793 19.5714L9.76758 19.829C9.76758 22.0351 9.83647 24.3166 9.83647 24.3166C9.83647 27.4391 12.3045 29.9704 15.3489 29.9704C15.3489 29.9704 17.2977 30.041 19.3109 30.041C21.4618 30.041 23.7552 29.9704 23.7552 29.9704C26.7996 29.9704 29.1987 27.5098 29.1987 24.3873C29.1987 24.3873 29.2676 22.1315 29.2676 19.9704L29.2663 19.4632C29.257 17.5243 29.1986 15.6947 29.1986 15.6947C29.1986 12.5722 26.7996 10.1117 23.7552 10.1117C23.7552 10.1117 21.7707 10.0466 19.7679 10.0413ZM19.5176 11.841C21.2268 11.841 23.4183 11.8989 23.4183 11.8989C25.9147 11.8989 27.4561 13.4798 27.4561 16.0403C27.4561 16.0403 27.5126 18.2495 27.5126 19.983C27.5126 21.7551 27.4561 24.0416 27.4561 24.0416C27.4561 26.6021 25.9147 28.183 23.4183 28.183C23.4183 28.183 21.4802 28.2317 19.7987 28.2398L19.3481 28.2409C17.6973 28.2409 15.6858 28.183 15.6858 28.183C13.1894 28.183 11.5791 26.5313 11.5791 23.971C11.5791 23.971 11.5226 21.6761 11.5226 19.8671C11.5226 18.174 11.5791 16.0403 11.5791 16.0403C11.5791 13.4798 13.1894 11.8989 15.6858 11.8989C15.6858 11.8989 17.8084 11.841 19.5176 11.841ZM19.5175 14.9184C16.7591 14.9184 14.523 17.2118 14.523 20.0409C14.523 22.8701 16.7591 25.1635 19.5175 25.1635C22.2759 25.1635 24.512 22.8701 24.512 20.0409C24.512 17.2118 22.2759 14.9184 19.5175 14.9184ZM19.5175 16.7076C21.3125 16.7076 22.7676 18.2 22.7676 20.0409C22.7676 21.8819 21.3125 23.3743 19.5175 23.3743C17.7226 23.3743 16.2675 21.8819 16.2675 20.0409C16.2675 18.2 17.7226 16.7076 19.5175 16.7076ZM24.751 13.4969C24.0845 13.4969 23.5442 14.0538 23.5442 14.7407C23.5442 15.4277 24.0845 15.9846 24.751 15.9846C25.4175 15.9846 25.9578 15.4277 25.9578 14.7407C25.9578 14.0537 25.4175 13.4969 24.751 13.4969Z" fill="white"/>
</svg>
