<svg width="39" height="39" viewBox="0 0 39 39" fill="none" xmlns="http://www.w3.org/2000/svg">
<path d="M27.3444 11.8639C27.3521 11.8639 27.3624 11.8639 27.3726 11.8639C27.6404 11.8639 27.889 11.9472 28.0927 12.0907L28.0888 12.0882C28.2375 12.2176 28.3374 12.3995 28.3618 12.6045V12.6084C28.3874 12.7647 28.4015 12.944 28.4015 13.1273C28.4015 13.2105 28.3989 13.2925 28.3925 13.3745V13.363C28.1042 16.3983 26.8537 23.7591 26.2182 27.1569C25.9492 28.5958 25.42 29.0775 24.9075 29.1237C23.7941 29.2274 22.9485 28.3882 21.8697 27.681C20.181 26.5727 19.2264 25.8834 17.5877 24.8033C15.6928 23.5566 16.9215 22.8686 18.0003 21.7488C18.2834 21.4541 23.1919 16.9889 23.288 16.5841C23.2931 16.5597 23.2957 16.5328 23.2957 16.5046C23.2957 16.4047 23.2585 16.3137 23.1983 16.2445C23.1317 16.201 23.0484 16.1766 22.9613 16.1766C22.9036 16.1766 22.8485 16.1882 22.7973 16.2074L22.7998 16.2061C22.6307 16.2445 19.9333 18.0272 14.7075 21.554C14.1373 22.0038 13.4173 22.2882 12.6331 22.3215H12.6254C11.5146 22.187 10.5063 21.9397 9.54916 21.5874L9.64397 21.6181C8.44216 21.226 7.48763 21.0198 7.56963 20.3561C7.61319 20.011 8.08896 19.6578 8.99694 19.2965C14.59 16.8595 18.3197 15.2533 20.1861 14.4777C22.2451 13.3848 24.632 12.4854 27.142 11.9024L27.3432 11.8627L27.3444 11.8639ZM19.4109 0.313477C8.774 0.339102 0.160156 8.96832 0.160156 19.6091C0.160156 30.2653 8.79835 38.9047 19.4558 38.9047C30.1132 38.9047 38.7514 30.2665 38.7514 19.6091C38.7514 8.96832 30.1376 0.339102 19.5032 0.313477H19.5006C19.4707 0.313477 19.4408 0.313477 19.4109 0.313477Z" fill="white"/>
</svg>
