<svg width="40" height="40" viewBox="0 0 40 40" fill="none" xmlns="http://www.w3.org/2000/svg">
<path d="M18.4676 -0.384697C13.6469 0.0392761 9.32083 2.05706 5.90551 5.46454C0.849258 10.5051 -1.13713 17.7597 0.637272 24.6924C1.27323 27.1656 2.49803 29.7016 4.06045 31.7586C6.83982 35.433 10.7812 38.0397 15.2329 39.1467C16.866 39.5471 17.7217 39.657 19.5668 39.712C23.1077 39.8062 26.0834 39.1389 29.2004 37.5607C34.6178 34.8206 38.5984 29.5995 39.7761 23.6717C40.1137 21.968 40.2079 20.8767 40.153 19.0473C40.098 17.2729 39.9802 16.4014 39.5798 14.7762C37.8211 7.67861 32.2074 2.00996 25.1412 0.204151C23.1156 -0.314034 20.4069 -0.557426 18.4676 -0.384697ZM21.7966 7.38811C23.9557 7.9063 25.8871 9.53152 26.8685 11.6592C28.1797 14.4936 27.6458 17.9246 25.4003 21.0494C24.7173 22.0073 20.14 27.6524 20.0771 27.6288C19.9201 27.5739 14.6833 20.9473 14.2907 20.3114C11.8568 16.4014 12.1081 12.201 14.9267 9.38235C16.7953 7.51373 19.292 6.79141 21.7966 7.38811ZM18.3498 27.252C19.0957 28.1784 19.7866 28.9871 19.8887 29.0342C20.0065 29.1049 20.1242 29.1127 20.2577 29.0656C20.3676 29.0185 21.0507 28.2412 21.8515 27.252C23.4611 25.2499 23.2334 25.3598 24.3718 25.9251C25.2512 26.3648 26.0206 27.0792 26.3189 27.7309C26.8136 28.8301 26.3425 29.945 25.0313 30.8243C23.6416 31.7429 21.7966 32.1826 19.6453 32.0962C17.4941 32.0177 15.7668 31.4289 14.6283 30.3846C12.8775 28.7751 13.592 26.8515 16.3792 25.6738C16.6618 25.5561 16.9209 25.4776 16.9445 25.509C16.968 25.5404 17.604 26.3255 18.3498 27.252Z" fill="white"/>
<path d="M19.0251 11.1959C17.1644 11.7063 15.916 13.355 15.916 15.2865C15.916 16.4563 16.2929 17.3435 17.1408 18.2072C18.2008 19.2749 19.5983 19.6911 21.0115 19.3613C22.6289 18.9766 23.8616 17.7282 24.1992 16.1266C24.3405 15.4513 24.3405 15.1059 24.1992 14.415C23.8694 12.8526 22.6682 11.5963 21.1214 11.1959C20.5718 11.0546 19.5512 11.0546 19.0251 11.1959ZM21.2 12.3658C21.8595 12.6406 22.2442 12.9311 22.5975 13.4257C23.1628 14.2108 23.3355 15.1373 23.1 16.0559C22.9351 16.6683 22.6603 17.1237 22.15 17.5869C21.5454 18.1443 21.0115 18.3328 20.0772 18.3406C19.402 18.3406 19.2842 18.3171 18.7975 18.0894C18.1536 17.7832 17.5883 17.2257 17.2743 16.5976C17.078 16.1815 17.0545 16.0637 17.0545 15.2786C17.0545 14.5092 17.078 14.3679 17.2664 13.9674C17.6276 13.1902 18.3656 12.5385 19.1743 12.2873C19.7239 12.1145 20.6818 12.1538 21.2 12.3658Z" fill="white"/>
</svg>
