<svg width="41" height="40" viewBox="0 0 41 40" fill="none" xmlns="http://www.w3.org/2000/svg">
<path d="M17.9924 0.401615C12.0906 1.17837 6.89357 4.50161 3.66642 9.57056C3.15392 10.3713 2.17697 12.3813 1.81662 13.3743C1.45627 14.3512 1.02384 16.0489 0.855681 17.178C0.671501 18.3551 0.615446 20.6934 0.727555 21.9506C0.903727 23.8885 1.3842 25.8344 2.14494 27.6842C4.26701 32.8973 8.72736 37.1014 14.0285 38.9032C23.0053 41.9622 32.7428 38.3827 37.6115 30.2467C38.8608 28.1647 39.6936 25.8424 40.15 23.2159C40.3903 21.8225 40.4063 18.6834 40.1901 17.2581C40.0059 16.0809 39.5735 14.3432 39.2131 13.3502C38.8047 12.2452 37.7477 10.1471 37.1231 9.21021C33.8479 4.29341 28.7469 1.12232 22.9172 0.393608C21.7881 0.257473 19.0975 0.257473 17.9924 0.401615ZM16.9514 9.0981C17.536 9.31431 18.1285 9.89888 18.2967 10.4274C18.3688 10.6356 18.577 11.5645 18.7612 12.4934C19.1375 14.4073 19.1535 14.9918 18.8332 15.7206C18.609 16.2411 18.1926 16.6174 17.2717 17.1219C16.6231 17.4903 16.583 17.5303 16.6231 17.7225C16.7192 18.1149 17.4799 19.6124 17.9283 20.285C18.7051 21.4622 20.1785 22.8555 21.3557 23.5522L21.716 23.7604L22.1805 23.4801C22.4287 23.328 22.8451 23.0797 23.1014 22.9196C23.9102 22.4311 24.7029 22.3831 25.6639 22.7674C26.1604 22.9596 28.9871 25.1057 29.3315 25.5381C29.7879 26.1147 29.924 26.9635 29.6838 27.6762C29.6117 27.8844 29.1153 28.6051 28.4426 29.47C26.9451 31.3918 26.9211 31.3999 25.2235 31.1516C18.4408 30.1266 12.7473 25.0497 11.1137 18.5553C10.5131 16.169 10.4971 13.5104 11.0656 10.9719C11.2418 10.1872 11.426 9.81079 11.7303 9.6106C11.9305 9.48247 15.3178 8.95396 16.0865 8.93794C16.3348 8.92993 16.6871 8.994 16.9514 9.0981Z" fill="white"/>
<path d="M14.2923 10.4031C13.3074 10.5393 12.4746 10.6914 12.4345 10.7314C12.3945 10.7795 12.2904 11.1719 12.1943 11.6123C10.9371 17.7543 13.4755 23.8643 18.7447 27.3797C20.8347 28.773 23.7976 29.8301 26.0878 30.0063L26.4242 30.0303L27.3291 28.8691C28.4982 27.3717 28.6023 27.2115 28.6023 26.9393C28.6023 26.5389 28.4341 26.3227 27.6093 25.682C24.8787 23.56 24.6224 23.4479 23.6695 24.0404C22.7326 24.617 21.9958 25.0334 21.8197 25.0734C21.5875 25.1375 20.7066 24.657 19.8097 23.9844C18.4484 22.9674 17.1671 21.51 16.3263 20.0285C15.8458 19.1877 15.2292 17.6742 15.2292 17.3459C15.2292 17.0016 15.6777 16.5932 16.6226 16.0647C18.016 15.2959 18.032 15.2158 17.5035 12.5732C17.1751 10.9397 17.0951 10.6273 16.9189 10.4272C16.6226 10.1068 16.3423 10.0988 14.2923 10.4031Z" fill="white"/>
</svg>
